<?xml version="1.0" standalone="no"?>
<!DOCTYPE svg PUBLIC "-//W3C//DTD SVG 20010904//EN"
 "http://www.w3.org/TR/2001/REC-SVG-20010904/DTD/svg10.dtd">
<svg version="1.0" xmlns="http://www.w3.org/2000/svg"
 width="1024.000000pt" height="1024.000000pt" viewBox="0 0 1024.000000 1024.000000"
 preserveAspectRatio="xMidYMid meet">

<g transform="translate(0.000000,1024.000000) scale(0.100000,-0.100000)"
fill="#000000" stroke="none">
<path d="M4960 9543 c-361 -13 -697 -67 -940 -150 -580 -198 -972 -490 -1275
-948 -149 -224 -259 -473 -346 -780 -26 -91 -151 -669 -175 -805 -33 -192 -20
-375 38 -537 33 -91 115 -228 184 -310 50 -58 50 -56 -12 -123 -100 -107 -159
-197 -234 -353 -142 -296 -204 -579 -203 -937 0 -234 19 -390 68 -558 107
-369 244 -618 463 -844 63 -65 146 -144 185 -175 49 -41 89 -86 137 -158 216
-321 512 -602 837 -794 l113 -66 0 -58 0 -58 -57 8 c-32 4 -130 7 -218 6 -344
-5 -587 -80 -747 -231 -91 -86 -130 -164 -136 -270 -6 -102 9 -152 61 -206 51
-53 106 -71 190 -62 54 5 57 5 57 -17 0 -12 9 -36 19 -53 52 -85 225 -84 441
0 10 4 22 -7 38 -37 28 -54 67 -77 126 -77 70 0 152 32 361 140 220 113 348
163 470 185 91 16 260 21 253 8 -68 -136 -72 -148 -76 -238 -3 -79 0 -96 20
-135 35 -68 70 -82 193 -77 80 3 120 11 203 39 l102 34 0 -70 c0 -94 20 -133
83 -165 45 -22 52 -23 110 -11 86 17 186 60 303 131 362 222 555 267 953 223
139 -15 148 -15 200 3 39 13 63 29 85 56 28 35 31 46 31 105 -1 85 -33 150
-108 218 -96 89 -257 154 -378 154 -52 0 -69 15 -69 62 0 21 9 27 68 46 78 25
176 81 237 135 24 20 50 37 58 37 15 0 64 -49 157 -155 240 -275 501 -468 745
-551 71 -24 99 -27 245 -31 l165 -5 65 -38 c126 -73 268 -106 410 -95 159 13
297 61 327 113 15 27 16 27 137 27 100 0 134 4 192 23 166 55 251 179 214 313
-12 44 -71 136 -131 205 -112 130 -325 362 -446 486 -73 75 -133 142 -133 148
0 5 6 10 13 10 8 0 41 14 75 31 140 70 184 185 151 402 -29 194 -205 1136
-249 1336 -132 590 -197 796 -347 1095 -170 340 -406 613 -648 751 l-75 42 51
63 c114 142 164 231 202 360 48 162 52 190 51 355 0 151 -3 174 -53 425 -88
447 -159 694 -273 955 -127 290 -302 541 -534 765 -170 165 -321 271 -541 383
-368 186 -703 269 -1203 297 -102 5 -189 9 -195 8 -5 -1 -44 -3 -85 -5z m455
-198 c410 -49 809 -181 1107 -366 126 -78 225 -156 342 -269 228 -221 387
-464 519 -790 87 -215 132 -379 217 -795 59 -290 67 -375 51 -511 -36 -294
-142 -481 -356 -627 -68 -46 -73 -47 -190 -62 -236 -29 -427 -100 -604 -225
-149 -105 -299 -285 -370 -441 -136 -302 -164 -637 -86 -1035 34 -177 97 -356
191 -544 318 -635 810 -1081 1454 -1319 194 -71 342 -102 525 -109 l150 -6 65
-71 c36 -39 151 -163 256 -275 283 -304 394 -430 417 -477 19 -40 20 -43 3
-68 -31 -47 -96 -68 -197 -63 -78 4 -97 9 -171 45 -46 23 -115 65 -153 94
-144 108 -399 347 -631 592 -93 98 -170 173 -172 167 -6 -17 71 -170 129 -257
122 -183 352 -448 552 -640 59 -56 107 -104 107 -106 0 -14 -124 -29 -200 -24
-140 8 -261 60 -425 183 -69 51 -424 403 -541 535 -33 37 -60 66 -61 65 -5 -4
69 -173 99 -226 69 -121 190 -293 280 -397 21 -25 37 -47 34 -50 -8 -8 -154
36 -221 66 -87 40 -223 129 -320 211 -68 57 -314 316 -323 338 -1 4 17 13 40
19 116 32 322 206 372 313 45 97 60 209 21 153 -77 -110 -216 -234 -320 -286
-53 -26 -193 -72 -200 -65 -2 2 12 45 31 96 19 51 39 116 44 144 12 60 12 175
1 203 -9 22 -10 21 -95 -174 -64 -148 -101 -206 -183 -288 -86 -87 -208 -151
-350 -184 -106 -25 -99 -13 -109 -179 -6 -94 -4 -111 14 -152 11 -25 31 -53
44 -62 12 -8 81 -25 153 -36 71 -12 156 -30 190 -41 92 -28 156 -103 128 -148
-8 -13 -27 -16 -99 -14 -490 9 -482 9 -588 -20 -108 -29 -262 -101 -426 -198
-104 -62 -230 -121 -282 -133 -34 -8 -35 -1 -8 87 34 111 127 214 293 326 26
18 47 36 47 41 0 15 -95 12 -173 -5 -93 -20 -149 -50 -216 -116 -48 -48 -69
-61 -146 -88 -114 -41 -238 -71 -292 -71 l-42 0 6 33 c12 66 45 136 84 181 81
92 221 136 612 191 137 19 253 37 258 41 22 13 39 69 68 221 17 89 33 168 36
175 2 7 -21 31 -52 53 -120 86 -217 215 -264 352 -34 100 -59 267 -59 396 l0
119 -22 -14 c-33 -22 -75 -113 -87 -188 -33 -203 13 -421 124 -590 29 -44 49
-83 44 -86 -6 -3 -103 -8 -217 -11 -409 -11 -781 43 -1062 154 -387 153 -642
318 -921 593 -280 277 -467 565 -592 910 -64 176 -143 441 -167 559 -63 309
-70 712 -19 991 18 93 79 288 142 445 47 119 61 165 65 223 5 82 4 81 87 39
68 -34 173 -66 258 -77 80 -11 162 -7 172 9 2 5 -23 19 -58 31 -114 42 -298
142 -396 215 -157 118 -251 227 -316 368 -57 124 -68 183 -62 342 4 119 14
184 66 440 106 518 174 735 319 1019 172 338 405 596 728 806 342 223 741 353
1239 406 158 16 474 11 660 -11z m-2796 -3576 c-11 -39 -54 -143 -96 -232
-168 -358 -222 -622 -210 -1027 9 -281 51 -552 124 -800 40 -133 39 -143 -2
-80 -179 267 -287 747 -255 1130 28 326 110 605 239 811 54 85 198 268 213
269 4 0 -2 -32 -13 -71z m4865 -37 c87 -32 158 -78 247 -161 223 -206 407
-541 568 -1032 61 -187 103 -341 95 -348 -3 -3 -47 -5 -97 -5 -151 3 -258 54
-377 181 -34 36 -64 63 -66 60 -3 -3 -1 -31 5 -63 43 -231 -56 -385 -238 -372
-108 8 -249 99 -336 218 -20 28 -40 48 -45 45 -4 -2 -10 -46 -13 -97 -9 -143
-36 -208 -107 -256 -30 -21 -44 -23 -105 -20 -141 8 -264 98 -338 246 -49 100
-58 89 -32 -41 22 -107 65 -188 141 -263 55 -55 184 -134 218 -134 7 0 11 -22
11 -57 0 -46 8 -74 36 -133 43 -90 142 -237 247 -369 158 -197 503 -529 654
-629 57 -37 33 -39 -97 -8 -406 98 -890 452 -1217 889 -235 315 -345 561 -424
947 -25 119 -28 157 -28 325 0 160 3 207 22 293 91 420 404 712 857 798 44 8
124 12 215 10 119 -2 156 -6 204 -24z m631 -1694 c65 -21 188 -29 267 -15 l47
8 10 -38 c5 -21 22 -114 36 -208 14 -93 66 -372 116 -619 49 -247 88 -456 87
-464 -4 -21 -139 89 -233 191 -139 150 -345 432 -482 662 -64 107 -153 268
-153 278 0 3 20 15 45 27 57 28 141 119 156 171 9 30 16 38 28 34 9 -4 43 -15
76 -27z m-685 -148 c75 -44 161 -70 240 -73 56 -2 70 -5 70 -18 0 -84 198
-485 367 -743 145 -222 320 -432 438 -524 33 -26 37 -33 25 -42 -40 -26 -188
3 -334 65 -196 85 -403 234 -624 449 -183 179 -336 360 -455 539 l-87 132 49
11 c97 22 180 90 230 188 12 25 24 46 26 46 2 0 27 -14 55 -30z m-3379 -2001
c41 -18 128 -51 194 -74 114 -40 121 -44 143 -84 35 -62 66 -74 219 -81 124
-6 133 -8 168 -34 42 -33 75 -81 75 -112 0 -12 -8 -32 -19 -45 l-18 -23 -148
14 c-252 23 -423 -10 -650 -127 -291 -150 -362 -184 -394 -190 l-33 -6 7 34
c33 156 136 271 328 365 42 21 77 42 77 47 0 5 -55 7 -122 5 -116 -3 -127 -5
-190 -37 -83 -41 -156 -116 -199 -204 -31 -62 -37 -68 -91 -91 -73 -32 -204
-66 -252 -66 -47 0 -47 16 -1 108 47 94 161 202 277 263 l83 43 -45 9 c-139
26 -283 -25 -389 -138 -33 -36 -70 -84 -81 -106 -23 -44 -51 -59 -110 -59 -67
0 -87 57 -54 153 64 189 342 277 881 277 168 0 204 3 217 15 16 17 31 63 42
133 4 23 8 42 9 42 2 0 36 -14 76 -31z m1549 -166 c-1 -5 -7 -33 -14 -63 l-13
-55 -149 -11 c-82 -7 -192 -20 -244 -29 -52 -10 -107 -20 -122 -22 -23 -4 -28
0 -48 43 -11 27 -34 63 -51 80 l-29 30 115 -4 c113 -4 392 12 470 28 54 11 85
12 85 3z"/>
<path d="M3241 8205 c-35 -8 -93 -28 -129 -45 -65 -30 -137 -78 -129 -86 2 -2
35 3 73 11 97 21 260 19 364 -4 47 -11 137 -38 200 -61 276 -102 413 -201 487
-353 48 -97 52 -135 7 -57 -78 136 -193 221 -381 287 -68 24 -93 27 -203 27
-111 0 -133 -3 -192 -26 -232 -89 -413 -291 -472 -529 -20 -83 -21 -244 -1
-339 52 -247 243 -466 476 -543 174 -58 422 -33 564 58 281 180 465 791 344
1144 -44 127 -138 258 -241 336 -81 61 -241 138 -343 166 -105 28 -330 35
-424 14z m257 -429 c-189 -78 -320 -226 -364 -412 -22 -94 -14 -226 19 -316
65 -180 214 -312 392 -348 146 -30 316 29 445 154 27 27 50 45 50 41 0 -20
-98 -140 -143 -176 -110 -87 -200 -113 -367 -107 -131 6 -169 17 -272 85 -96
63 -182 176 -224 296 -23 66 -35 207 -24 286 33 231 219 445 440 507 25 7 59
13 75 13 25 0 21 -3 -27 -23z m254 -137 c49 -25 78 -81 78 -151 0 -98 -65
-158 -172 -158 -113 0 -188 99 -158 210 30 110 142 154 252 99z"/>
<path d="M6359 8206 c-372 -78 -613 -339 -658 -714 -20 -162 17 -406 86 -572
51 -125 159 -281 232 -339 21 -17 72 -47 113 -66 191 -91 414 -87 617 12 79
37 108 59 181 131 168 168 239 349 227 586 -8 173 -61 313 -168 444 -122 149
-279 225 -489 238 -275 17 -514 -132 -652 -405 -38 -76 -40 -72 -12 44 21 86
52 141 118 212 63 68 189 158 271 193 187 81 379 130 507 130 73 -1 192 -13
245 -26 l28 -7 -30 25 c-40 34 -135 82 -205 103 -75 23 -321 29 -411 11z m286
-465 c131 -61 243 -169 305 -296 113 -230 64 -491 -130 -685 -154 -155 -342
-197 -560 -124 -96 32 -158 72 -220 142 -58 65 -58 81 -1 29 92 -83 214 -122
352 -115 125 8 215 51 313 151 178 180 217 429 103 657 -40 81 -158 202 -242
248 -60 33 -60 33 -20 27 21 -4 66 -19 100 -34z m-293 -97 c43 -22 78 -76 84
-130 13 -115 -91 -209 -203 -184 -103 24 -157 125 -118 225 36 96 144 137 237
89z"/>
<path d="M4801 7345 c-240 -45 -432 -265 -506 -581 -15 -63 -37 -125 -51 -147
-34 -51 -129 -119 -215 -153 -68 -27 -109 -61 -109 -92 0 -26 82 -99 125 -111
22 -6 85 -18 139 -26 110 -17 176 -42 220 -83 15 -15 67 -81 114 -147 216
-303 311 -387 404 -356 54 18 107 69 258 250 146 175 233 256 315 295 28 13
107 35 177 50 131 26 158 36 218 80 98 74 73 139 -74 195 -125 47 -146 75
-215 281 -49 147 -85 216 -165 314 -98 118 -191 186 -305 222 -66 22 -241 26
-330 9z m229 -145 c193 -31 317 -166 415 -455 21 -60 50 -135 66 -166 29 -59
104 -135 161 -162 22 -11 28 -17 18 -21 -24 -7 -140 -25 -210 -31 -168 -16
-259 -84 -502 -381 -97 -117 -91 -114 -139 -68 -22 21 -78 96 -124 165 -105
157 -200 251 -277 274 -29 8 -102 18 -163 22 l-110 8 56 32 c68 38 135 111
172 186 15 31 50 115 77 187 57 153 93 219 156 290 102 112 223 148 404 120z"/>
<path d="M4632 6924 c-29 -20 -61 -84 -68 -136 -17 -122 139 -135 162 -13 10
54 -1 114 -27 141 -26 28 -37 29 -67 8z"/>
<path d="M5202 6933 c-39 -15 -55 -123 -28 -188 25 -59 89 -74 125 -29 40 51
20 148 -41 199 -30 26 -34 27 -56 18z"/>
<path d="M2957 5298 c-44 -48 -85 -142 -98 -229 -39 -263 144 -322 221 -71 27
88 27 230 0 290 -17 38 -22 42 -55 42 -29 0 -44 -7 -68 -32z"/>
<path d="M3723 5191 c-83 -51 -149 -312 -112 -445 14 -49 50 -86 85 -86 40 0
97 65 124 142 27 76 38 250 21 315 -21 78 -65 106 -118 74z"/>
<path d="M5312 5103 c-22 -9 -51 -79 -63 -151 -30 -179 55 -382 158 -382 80 0
116 150 77 323 -36 161 -100 239 -172 210z"/>
<path d="M4481 4964 c-41 -52 -56 -121 -56 -254 0 -139 10 -183 56 -235 36
-41 70 -50 108 -31 97 51 100 403 4 516 -33 40 -83 41 -112 4z"/>
<path d="M3177 4390 c-53 -62 -73 -273 -38 -391 36 -118 132 -163 175 -82 53
103 40 354 -23 457 -35 56 -76 62 -114 16z"/>
<path d="M4016 4201 c-38 -41 -59 -139 -60 -266 0 -105 3 -127 23 -173 60
-134 164 -136 202 -4 28 97 13 303 -29 387 -36 73 -98 99 -136 56z"/>
<path d="M5134 4164 c-75 -113 -47 -393 48 -481 58 -55 125 -31 148 52 31 110
-17 349 -84 420 -42 44 -87 48 -112 9z"/>
<path d="M3002 3508 c-19 -19 -14 -112 9 -173 41 -109 123 -189 189 -183 l35
3 -1 65 c-1 82 -47 183 -116 253 -49 49 -90 61 -116 35z"/>
<path d="M3683 3403 c-23 -55 -14 -229 16 -305 28 -72 72 -129 118 -149 71
-33 103 0 103 106 0 177 -102 385 -187 385 -30 0 -36 -5 -50 -37z"/>
<path d="M5728 3433 c-45 -12 -49 -189 -8 -309 44 -130 161 -213 215 -154 24
26 31 109 15 184 -16 80 -82 207 -130 250 -38 34 -54 39 -92 29z"/>
<path d="M4741 3371 c-44 -44 -52 -198 -17 -316 31 -101 105 -185 163 -185 25
0 59 39 68 80 9 43 -13 183 -42 263 -54 150 -120 210 -172 158z"/>
<path d="M4422 2748 c-33 -33 5 -192 65 -273 65 -85 190 -132 210 -78 10 25
-13 121 -44 183 -30 61 -102 144 -145 166 -33 17 -70 18 -86 2z"/>
</g>
</svg>
